<svg xmlns="http://www.w3.org/2000/svg" clip-rule="evenodd" fill-rule="evenodd" image-rendering="optimizeQuality" shape-rendering="geometricPrecision" text-rendering="geometricPrecision" viewBox="0 0 4986.22 5552.56" style="fill: rgb(0, 0, 0);" original_string_length="856"><g><path d="M3275.43 4122.56c969.35,-174.48 1710.79,-1027.36 1710.79,-2045 0,-1142.64 -934.86,-2077.56 -2077.56,-2077.56l-2908.66 0 831.05 831.05 2077.61 0c685.63,0 1246.5,560.95 1246.5,1246.57 0,685.6 -560.87,1246.55 -1246.5,1246.55l-415.49 0 0 1268.76 831.05 -479.79c-16.17,3.34 -32.42,6.46 -48.79,9.42z" style="fill: rgb(86, 224, 224);"/><path d="M1662.11 4155.16c0,-553.97 0,-1108 0,-1662.04l1246.49 0c228.6,0 415.56,-186.92 415.56,-415.49 0,-228.58 -186.96,-415.5 -415.56,-415.5l-2077.55 0c0,830.99 0,1662.04 0,2493.03l0 1397.4 831.05 -479.79 0 -917.61z" style="fill: rgb(196, 196, 196);"/></g></svg>